<mxfile host="65bd71144e">
    <diagram id="huhC0_pLVkDCd1lAJ4tG" name="Page-1">
        <mxGraphModel dx="650" dy="647" grid="1" gridSize="10" guides="1" tooltips="1" connect="1" arrows="1" fold="1" page="1" pageScale="1" pageWidth="827" pageHeight="1169" math="0" shadow="0">
            <root>
                <mxCell id="0"/>
                <mxCell id="1" parent="0"/>
                <mxCell id="4" style="edgeStyle=none;html=1;exitX=1;exitY=0.5;exitDx=0;exitDy=0;" edge="1" parent="1">
                    <mxGeometry relative="1" as="geometry">
                        <mxPoint x="630" y="30" as="sourcePoint"/>
                        <mxPoint x="630" y="39.41176470588232" as="targetPoint"/>
                    </mxGeometry>
                </mxCell>
                <mxCell id="5" value="" style="rounded=0;whiteSpace=wrap;html=1;" vertex="1" parent="1">
                    <mxGeometry x="20" y="20" width="610" height="620" as="geometry"/>
                </mxCell>
                <mxCell id="6" value="NAVBAR (D)" style="rounded=0;whiteSpace=wrap;html=1;" vertex="1" parent="1">
                    <mxGeometry x="20" y="20" width="610" height="60" as="geometry"/>
                </mxCell>
                <mxCell id="7" value="HERO 3 (DISPLAYS THEME OF SUBPAGE)" style="rounded=0;whiteSpace=wrap;html=1;" vertex="1" parent="1">
                    <mxGeometry x="20" y="80" width="610" height="130" as="geometry"/>
                </mxCell>
                <mxCell id="8" value="" style="rounded=0;whiteSpace=wrap;html=1;" vertex="1" parent="1">
                    <mxGeometry x="40" y="230" width="570" height="150" as="geometry"/>
                </mxCell>
                <mxCell id="9" value="" style="rounded=0;whiteSpace=wrap;html=1;" vertex="1" parent="1">
                    <mxGeometry x="40" y="404.5" width="570" height="145.5" as="geometry"/>
                </mxCell>
                <mxCell id="10" value="FOOTER (D)" style="rounded=0;whiteSpace=wrap;html=1;" vertex="1" parent="1">
                    <mxGeometry x="20" y="580" width="610" height="60" as="geometry"/>
                </mxCell>
                <mxCell id="11" value="ENTERPRISE 1 TESTEMONIAL" style="rounded=0;whiteSpace=wrap;html=1;" vertex="1" parent="1">
                    <mxGeometry x="125" y="250" width="400" height="30" as="geometry"/>
                </mxCell>
                <mxCell id="12" value="ENTERPRISE 2 TESTEMONIAL" style="rounded=0;whiteSpace=wrap;html=1;" vertex="1" parent="1">
                    <mxGeometry x="125" y="290" width="400" height="30" as="geometry"/>
                </mxCell>
                <mxCell id="13" value="ENTERPRISE 3 TESTEMONIAL&amp;nbsp;" style="rounded=0;whiteSpace=wrap;html=1;" vertex="1" parent="1">
                    <mxGeometry x="125" y="330" width="400" height="30" as="geometry"/>
                </mxCell>
                <mxCell id="14" value="PRIVAT REVIEW 1" style="rounded=0;whiteSpace=wrap;html=1;" vertex="1" parent="1">
                    <mxGeometry x="125" y="420" width="400" height="30" as="geometry"/>
                </mxCell>
                <mxCell id="15" value="PRIVAT REVIEW 2" style="rounded=0;whiteSpace=wrap;html=1;" vertex="1" parent="1">
                    <mxGeometry x="125" y="460" width="400" height="30" as="geometry"/>
                </mxCell>
                <mxCell id="16" value="PRIVAT REVIEW 3" style="rounded=0;whiteSpace=wrap;html=1;" vertex="1" parent="1">
                    <mxGeometry x="125" y="500" width="400" height="30" as="geometry"/>
                </mxCell>
            </root>
        </mxGraphModel>
    </diagram>
</mxfile>